 <svg  version="1.0" xmlns="http://www.w3.org/2000/svg"  width="900.000000pt" height="813.000000pt" viewBox="0 0 900.000000 813.000000"  preserveAspectRatio="xMidYMid meet">  <g transform="translate(0.000000,813.000000) scale(0.100000,-0.100000)" fill="orangered" stroke="none"> 
 <path d="M4400 7553 c-166 -27 -209 -35 -235 -43 -378 -121 -568 -210 -849 -399 -54 -36 -109 -73 -121 -81 -78 -51 -233 -175 -311 -250 -23 -22 -46 -40 -51 -40 -5 0 -38 -29 -74 -65 -35 -35 -68 -65 -73 -65 -15 0 -413 -408 -552 -565 -225 -256 -432 -513 -468 -582 -9 -18 -22 -36 -30 -40 -27 -15 -256 -335 -256 -357 0 -6 -13 -24 -29 -41 -16 -16 -44 -57 -61 -90 -18 -33 -36 -62 -40 -65 -26 -16 -120 -178 -120 -205 0 -9 -7 -18 -16 -22 -10 -3 -43 -61 -75 -128 -59 -123 -83 -205 -59 -205 6 0 14 9 17 19 3 11 11 22 19 25 8 3 14 11 14 18 0 8 13 28 30 46 17 18 30 38 30 44 0 6 6 19 14 27 8 9 75 107 149 218 75 111 151 223 169 247 18 25 53 75 78 111 25 37 50 72 57 79 6 7 24 31 40 53 15 22 55 75 88 117 33 43 67 88 75 100 41 58 324 404 408 501 276 313 620 649 867 846 166 133 423 315 485 342 8 4 29 16 45 27 17 10 91 49 165 85 74 36 148 73 163 81 16 7 33 14 39 14 5 0 24 6 41 14 125 56 326 102 498 116 240 18 471 -19 655 -106 28 -13 54 -24 57 -24 13 0 166 -97 242 -153 87 -64 320 -296 330 -328 4 -10 10 -19 14 -19 4 0 29 -32 56 -71 28 -38 58 -80 68 -91 9 -12 17 -25 17 -30 0 -5 6 -16 13 -23 29 -33 38 -46 47 -67 6 -13 19 -36 30 -53 11 -16 24 -39 30 -50 6 -11 19 -33 30 -50 11 -16 24 -40 30 -52 5 -13 14 -23 20 -23 5 0 10 -9 10 -19 0 -11 5 -23 10 -26 21 -13 22 28 1 84 -11 32 -21 63 -21 70 0 21 -91 205 -116 234 -13 16 -24 34 -24 41 0 15 -114 192 -127 197 -4 2 -21 23 -36 46 -35 50 -179 201 -262 273 -201 175 -491 310 -740 345 -98 14 -342 19 -405 8z"/> 
 <path d="M4530 7335 c-8 -2 -55 -8 -105 -15 -138 -17 -344 -76 -462 -130 -35 -17 -68 -30 -72 -30 -5 0 -42 -18 -82 -40 -41 -22 -87 -46 -104 -54 -16 -8 -52 -29 -80 -45 -27 -17 -57 -34 -65 -38 -47 -22 -372 -254 -446 -319 -12 -11 -52 -44 -90 -74 -37 -30 -75 -62 -83 -70 -9 -8 -59 -53 -111 -99 -115 -101 -417 -404 -555 -555 -55 -61 -107 -117 -115 -126 -19 -20 -98 -112 -186 -216 -120 -142 -170 -203 -259 -316 -27 -34 -53 -65 -56 -68 -3 -3 -83 -108 -177 -235 -94 -126 -179 -241 -189 -254 -10 -13 -25 -34 -33 -46 -42 -64 -95 -144 -121 -182 -16 -23 -29 -44 -29 -47 0 -3 -13 -25 -30 -49 -28 -42 -39 -77 -23 -77 27 0 244 249 393 452 56 76 240 306 310 389 119 140 146 174 171 209 13 19 47 60 75 90 28 30 59 69 70 85 10 17 53 66 95 110 43 44 93 99 112 122 39 48 273 291 418 434 111 110 340 315 417 374 29 21 52 42 52 46 0 4 28 26 63 49 34 23 71 51 82 62 73 71 531 349 615 373 14 4 32 13 40 20 24 19 295 102 407 125 73 14 140 20 245 20 148 0 228 -11 353 -50 39 -12 84 -25 101 -29 47 -12 295 -175 371 -244 96 -86 205 -196 225 -225 9 -14 37 -48 63 -76 25 -28 80 -97 122 -153 77 -105 189 -230 199 -221 2 3 -1 18 -7 34 -19 48 -44 99 -50 104 -3 3 -16 28 -30 55 -13 28 -28 53 -32 56 -8 6 -28 37 -44 69 -8 17 -122 172 -132 180 -3 3 -19 23 -36 45 -31 43 -220 231 -281 280 -174 140 -396 244 -594 280 -82 15 -289 28 -320 20z"/> 
 <path d="M2260 5117 c-48 -16 -126 -95 -139 -143 -13 -45 -14 -260 -2 -321 5 -25 23 -61 45 -87 l37 -45 -21 -38 c-11 -21 -30 -51 -43 -66 l-22 -28 0 -474 0 -473 30 -43 c17 -24 50 -58 74 -76 l43 -34 722 3 721 3 41 22 c23 12 69 52 103 89 87 95 91 113 91 411 0 238 0 244 -26 308 -29 72 -28 96 5 187 19 51 21 81 22 285 1 141 -3 246 -10 275 -11 46 -72 139 -122 184 -13 12 -46 32 -74 45 l-50 24 -695 2 c-491 1 -705 -2 -730 -10z m1432 -117 c25 0 96 -67 119 -111 17 -35 19 -61 19 -284 0 -207 -3 -251 -16 -278 -22 -43 -46 -65 -100 -88 -49 -22 -53 -39 -11 -50 42 -11 86 -48 107 -89 18 -36 20 -60 20 -290 0 -227 -2 -254 -19 -288 -20 -39 -47 -67 -93 -95 -24 -15 -95 -16 -750 -17 -398 0 -727 0 -733 0 -7 0 -9 173 -8 502 l2 503 48 -1 c26 0 284 -2 573 -3 l525 -3 28 25 c23 21 27 33 27 76 0 42 -5 57 -25 77 l-25 25 -577 -2 -576 -2 1 196 c0 109 1 198 1 200 1 1 1305 -1 1463 -3z"/> 
 <path d="M2633 4004 c-2 -6 -2 -52 -1 -103 l3 -93 363 1 c233 1 371 6 386 13 52 23 62 110 19 158 l-28 30 -369 2 c-256 2 -370 0 -373 -8z"/> <path d="M4137 5070 c-55 -10 -67 -26 -31 -42 19 -8 87 -13 204 -13 l175 -1 22 -44 c12 -25 22 -50 22 -56 1 -10 78 -209 101 -259 9 -21 20 -48 96 -240 26 -66 51 -124 55 -129 5 -6 9 -22 9 -36 0 -14 7 -35 15 -46 8 -12 23 -54 34 -94 11 -40 23 -75 26 -79 11 -10 40 16 43 40 2 13 15 58 29 99 24 71 37 106 68 175 7 17 21 53 30 80 10 28 23 59 30 70 6 11 15 33 19 50 4 16 18 52 30 80 84 187 139 375 109 375 -19 0 -42 -36 -49 -78 -5 -32 -11 -42 -25 -42 -13 0 -19 -7 -19 -23 0 -13 -4 -27 -9 -33 -5 -5 -11 -22 -13 -39 -2 -19 -9 -30 -18 -30 -8 0 -16 -11 -18 -25 -2 -14 -8 -29 -13 -34 -5 -6 -9 -21 -9 -35 0 -15 -9 -39 -20 -56 -11 -16 -20 -41 -20 -54 0 -14 -6 -32 -13 -40 -8 -9 -19 -32 -26 -51 -26 -71 -56 -129 -68 -130 -6 0 -15 -9 -18 -21 -9 -28 -25 -20 -39 22 -7 20 -22 49 -33 65 -12 17 -24 46 -28 66 -4 21 -13 42 -21 49 -8 6 -14 21 -14 33 0 12 -5 27 -11 33 -5 5 -12 25 -14 43 -3 18 -14 41 -25 52 -11 10 -20 25 -20 33 0 13 -48 134 -71 177 -5 10 -9 30 -9 46 0 15 -8 35 -17 44 -10 10 -31 31 -48 48 -16 17 -39 36 -49 42 -23 12 -294 19 -349 8z"/> <path d="M6130 5073 c-56 -9 -69 -14 -102 -45 -37 -34 -78 -105 -78 -134 0 -14 -15 -48 -41 -94 -5 -8 -12 -22 -15 -30 -3 -8 -21 -51 -40 -95 -19 -44 -34 -88 -34 -97 0 -10 -13 -43 -30 -73 -16 -30 -30 -64 -30 -75 0 -10 -8 -23 -17 -29 -9 -5 -22 -29 -28 -53 -12 -53 -45 -65 -67 -24 -64 122 -98 195 -98 213 0 22 -26 77 -47 101 -7 7 -13 29 -13 48 0 19 -4 34 -9 34 -5 0 -12 12 -15 26 -4 15 -14 33 -21 41 -8 8 -15 27 -15 43 0 16 -4 32 -10 35 -5 3 -10 13 -10 22 0 9 -9 25 -20 37 -12 12 -32 35 -45 51 l-24 30 -1 -25 c0 -29 15 -90 35 -140 7 -19 34 -89 60 -155 45 -117 98 -249 116 -290 18 -44 78 -202 90 -240 29 -94 42 -125 54 -125 13 0 29 33 41 84 4 16 13 41 20 55 8 14 14 34 14 43 0 10 11 41 24 70 13 29 68 163 121 298 53 135 106 270 119 300 13 30 27 70 30 88 4 17 14 36 23 40 8 5 73 7 144 4 149 -5 252 10 247 37 -2 12 -19 18 -63 22 -66 7 -225 9 -265 2z"/> <path d="M4045 5008 c-14 -34 10 -191 31 -209 8 -6 14 -24 14 -40 0 -15 5 -31 10 -34 6 -3 10 -16 10 -29 0 -13 9 -31 20 -41 11 -10 20 -29 20 -42 0 -13 7 -35 16 -48 9 -13 13 -33 10 -43 -5 -14 -1 -21 14 -25 15 -4 20 -13 20 -36 0 -17 9 -55 19 -84 11 -28 29 -79 41 -112 12 -33 31 -67 42 -75 10 -9 16 -22 13 -31 -3 -8 7 -39 21 -69 15 -30 29 -72 32 -92 2 -21 11 -43 18 -49 8 -6 14 -21 14 -33 0 -11 9 -34 20 -51 11 -16 20 -40 20 -52 0 -12 8 -36 17 -55 9 -18 22 -45 30 -60 7 -14 13 -40 13 -56 0 -17 5 -34 10 -37 6 -3 10 -19 10 -35 0 -16 6 -33 14 -37 16 -10 56 -86 56 -108 0 -9 15 -25 34 -36 19 -11 37 -26 40 -34 4 -13 39 -15 204 -15 l198 0 42 43 c23 23 42 50 42 60 0 9 8 21 18 26 12 6 23 31 31 66 12 53 50 105 76 105 15 0 67 -99 59 -112 -4 -6 0 -16 8 -22 8 -6 26 -37 41 -68 19 -43 31 -58 46 -58 12 0 26 -9 33 -20 12 -19 24 -20 202 -20 234 0 236 1 297 130 23 47 47 97 55 112 8 14 14 33 14 42 0 9 4 24 9 34 26 51 41 96 41 120 0 15 16 51 35 81 21 32 35 65 35 84 0 18 16 63 35 101 19 39 35 80 35 92 0 13 4 25 9 28 5 3 12 18 16 33 3 16 18 53 32 83 15 30 31 84 37 120 9 53 14 64 29 62 13 -2 17 4 17 25 1 49 26 128 41 128 9 0 15 14 17 38 2 20 7 37 13 37 5 0 9 17 9 38 0 26 7 45 20 57 11 10 20 31 20 47 0 16 4 37 9 46 5 9 11 45 13 80 5 69 -8 78 -28 20 -6 -19 -24 -54 -38 -76 -14 -23 -26 -49 -26 -58 0 -9 -6 -30 -14 -47 -15 -33 -52 -131 -107 -279 -17 -46 -37 -97 -45 -114 -9 -17 -19 -46 -24 -65 -8 -31 -138 -377 -159 -424 -5 -11 -19 -47 -30 -80 -18 -54 -37 -104 -60 -160 -22 -52 -71 -193 -77 -222 -4 -18 -12 -37 -19 -43 -8 -7 -85 -9 -216 -8 l-203 3 -12 35 c-19 59 -34 101 -75 215 -43 116 -75 217 -81 250 -2 11 -10 20 -18 20 -14 0 -22 -18 -58 -135 -11 -36 -41 -123 -67 -195 -26 -71 -51 -145 -56 -163 l-10 -32 -211 2 -211 3 -19 60 c-17 55 -218 603 -239 650 -22 52 -42 105 -61 160 -11 33 -24 65 -28 70 -4 6 -10 25 -14 44 -3 19 -12 42 -20 50 -7 9 -19 39 -26 66 -7 28 -21 66 -30 85 -10 19 -25 60 -34 90 -10 30 -28 78 -40 105 -13 28 -26 63 -30 79 -4 17 -17 43 -28 59 -12 16 -27 46 -34 66 -10 28 -14 32 -19 19z"/> <path d="M7592 4332 c-29 -26 -52 -52 -52 -57 0 -6 -10 -21 -23 -35 -26 -29 -86 -110 -139 -189 -20 -31 -52 -76 -69 -101 -18 -25 -71 -101 -119 -170 -130 -190 -139 -203 -230 -328 -47 -64 -94 -130 -103 -145 -10 -16 -25 -36 -33 -45 -8 -9 -47 -60 -87 -113 -40 -53 -94 -125 -122 -160 -27 -35 -71 -93 -97 -129 -54 -72 -66 -87 -234 -280 -292 -336 -482 -533 -644 -669 -30 -25 -90 -77 -134 -116 -43 -38 -86 -74 -96 -80 -38 -23 -115 -81 -136 -103 -12 -12 -24 -22 -28 -22 -4 0 -56 -32 -117 -70 -266 -172 -543 -282 -784 -311 -94 -12 -328 -5 -368 10 -12 5 -47 14 -77 21 -83 19 -213 75 -320 137 -92 54 -135 85 -258 184 -66 53 -290 287 -328 342 -13 20 -29 37 -34 37 -5 0 -28 25 -50 55 -39 52 -123 125 -145 124 -5 0 -2 -6 8 -13 9 -7 17 -21 17 -31 0 -9 21 -49 47 -88 199 -301 436 -549 669 -699 67 -43 218 -116 286 -138 35 -11 79 -26 98 -32 92 -29 340 -45 460 -29 162 22 307 61 440 118 19 8 49 21 65 28 43 18 175 85 210 107 17 10 37 21 45 25 8 4 43 26 78 50 35 24 65 43 68 43 9 0 315 233 354 270 9 8 52 46 96 85 147 129 453 442 606 620 32 37 164 193 187 220 33 40 137 171 156 197 11 15 75 100 143 188 67 88 122 164 122 168 0 4 10 19 23 32 12 14 36 46 53 70 17 25 50 72 73 105 105 151 361 540 377 575 4 8 20 34 36 57 15 23 28 46 28 52 0 5 6 16 13 23 17 19 32 45 62 105 14 28 30 55 35 58 6 3 10 14 10 24 0 10 7 24 15 31 16 13 21 40 8 40 -5 0 -32 -22 -61 -48z"/> <path d="M7716 4313 c-4 -13 -11 -23 -16 -23 -4 0 -19 -21 -31 -47 -13 -27 -34 -64 -47 -83 -13 -19 -28 -44 -33 -55 -5 -11 -18 -33 -29 -50 -11 -16 -25 -42 -31 -57 -6 -16 -15 -28 -20 -28 -5 0 -9 -5 -9 -11 0 -9 -139 -245 -225 -382 -11 -18 -33 -54 -50 -80 -41 -66 -89 -140 -124 -190 -60 -87 -166 -249 -176 -267 -5 -11 -13 -20 -17 -20 -3 0 -17 -17 -29 -37 -27 -44 -304 -416 -360 -483 -21 -25 -82 -97 -136 -160 -54 -63 -109 -128 -123 -144 -123 -144 -446 -461 -605 -593 -57 -47 -247 -191 -295 -223 -12 -8 -40 -27 -61 -42 -21 -16 -42 -28 -46 -28 -3 0 -14 -6 -22 -14 -20 -17 -127 -75 -246 -133 -49 -25 -98 -49 -107 -54 -10 -5 -23 -9 -29 -9 -6 0 -25 -6 -42 -14 -65 -28 -163 -57 -317 -93 -107 -24 -405 -24 -510 0 -174 41 -257 72 -405 151 -191 103 -433 320 -592 531 -89 117 -123 165 -123 172 0 5 -12 21 -27 38 -29 31 -45 54 -62 93 -6 12 -15 22 -21 22 -5 0 -10 7 -10 15 0 9 -7 18 -15 21 -8 4 -15 12 -15 19 0 8 -5 17 -11 20 -17 11 0 -85 22 -121 11 -17 19 -40 19 -50 0 -11 9 -30 20 -44 11 -14 20 -30 20 -35 0 -18 159 -255 170 -255 6 0 15 -11 20 -25 5 -14 14 -25 20 -25 5 0 16 -15 24 -32 14 -32 112 -133 247 -254 90 -81 338 -244 371 -244 7 0 23 -7 35 -15 33 -23 185 -72 297 -96 78 -16 138 -21 261 -22 255 -1 454 42 705 151 153 67 375 187 455 246 17 13 55 40 85 61 30 21 109 81 174 134 309 248 575 514 876 876 75 91 117 144 235 296 57 73 125 164 157 212 177 258 258 379 258 386 0 5 14 26 30 47 33 42 130 191 130 200 0 3 20 37 45 75 25 38 45 74 45 80 0 6 14 32 31 58 46 67 212 396 236 466 36 106 45 141 41 166 l-4 24 -8 -22z"/> </g> </svg> 