<svg xmlns="http://www.w3.org/2000/svg" width="430" height="430" style="width:100%;height:100%;transform:translate3d(0,0,0);content-visibility:visible" viewBox="0 0 430 430"><defs><clipPath id="a"><path d="M0 0h430v430H0z"/></clipPath><clipPath id="c"><path d="M0 0h430v430H0z"/></clipPath><clipPath id="b"><path d="M0 0h430v430H0z"/></clipPath></defs><g clip-path="url(#a)"><g clip-path="url(#b)" style="display:block"><path fill="#4BB3FD" d="M121.32-46.13c-17.944-42.066-59.671-71.558-108.293-71.558-45.444 0-84.843 25.775-104.454 63.487A36.496 36.496 0 0 0-102.739-56c-20.227 0-36.62 16.397-36.62 36.624 0 2.709.314 5.341.871 7.882-21.794 11.473-36.677 34.307-36.677 60.648 0 37.849 30.685 68.534 68.534 68.534H90.317c46.858 0 84.848-37.986 84.848-84.844 0-35.913-22.327-66.591-53.845-78.974z" class="secondary" style="display:block" transform="translate(216.001 214.248) scale(.99999)"/><g opacity=".5" style="mix-blend-mode:multiply;display:block"><path fill="#4BB3FD" d="M-19.58 49.154c0-26.341 14.883-49.175 36.677-60.648a36.745 36.745 0 0 1-.872-7.882C16.225-39.603 32.619-56 52.846-56c3.951 0 7.749.64 11.312 1.799 11.948-22.977 31.251-41.507 54.782-52.492-15.097-7.045-31.928-10.995-49.688-10.995-45.444 0-84.843 25.775-104.454 63.487A36.49 36.49 0 0 0-46.514-56c-20.226 0-36.621 16.397-36.621 36.624 0 2.709.315 5.341.872 7.882-21.795 11.473-36.677 34.307-36.677 60.648 0 37.849 30.685 68.534 68.534 68.534h99.36c-37.849 0-68.534-30.685-68.534-68.534z" class="secondary" opacity="1" style="mix-blend-mode:multiply" transform="translate(159.383 214.248) scale(.99999)"/></g><g fill="#3A3347" style="display:block"><path d="M319.576 332.363H165.338l.231-11.483c0-27.097 21.97-49.067 49.066-49.067h56.109c27.097 0 49.067 21.97 49.067 49.067l-.235 11.483z" class="primary"/><path d="M10.156 31.818h-22.153l.066-3.281c0-7.742 6.277-14.019 14.019-14.019h8.14l-.072 17.3z" class="primary" opacity=".5" style="mix-blend-mode:multiply" transform="matrix(3.5 0 0 3.5 207.327 221)"/></g><g fill="#3A3347" style="display:block"><path d="M270.843 182.694a36.434 36.434 0 0 1 8.555 23.512c0 20.202-16.382 36.583-36.584 36.583s-36.584-16.381-36.584-36.583c0-20.203 16.378-36.584 36.584-36.584 11.251 0 21.316 5.08 28.029 13.072" class="primary"/><path d="M7.898 1.124v5.797C2.294 6.921-2.25 2.377-2.25-3.227S2.293-13.375 7.898-13.375V1.124" class="primary" opacity=".5" style="mix-blend-mode:multiply" transform="translate(214.342 217.839) scale(3.605)"/></g></g><g clip-path="url(#c)" style="display:none"><path class="secondary" style="display:none"/><path class="secondary" style="display:none"/><path class="secondary" style="display:none"/><path class="secondary" style="display:none"/><path class="secondary" style="display:none"/><path class="secondary" style="display:none"/><path class="secondary" style="mix-blend-mode:multiply;display:none"/><g style="display:none"><path class="primary"/><path class="primary" style="mix-blend-mode:multiply"/></g><g style="display:none"><path class="primary"/><path class="primary" style="mix-blend-mode:multiply"/></g></g></g></svg>